# This file uses centimeters as units for non-parametric coordinates.

mtllib LowPolyTree.mtl
g LowPolyTree2:default1
v 0.126209 0.197931 0.389611
v 0.333631 0.313455 0.108423
v 0.404428 0.196924 -0.056617
v 0.223186 0.296031 -0.256446
v 0.014657 0.197931 -0.409280
v -0.205056 0.322870 -0.282721
v -0.400517 0.197336 -0.085390
v -0.361776 0.186598 0.206629
v -0.151210 0.231967 0.352276
v 0.000000 0.927738 0.000000
v 0.132226 -0.532538 -0.107258
v 0.023452 -0.532538 -0.187609
v -0.096985 -0.532538 -0.154090
v -0.181924 -0.532538 -0.044037
v -0.188683 -0.532538 0.087370
v -0.104362 -0.532538 0.187929
v 0.036383 -0.532538 0.212332
v 0.159639 -0.532538 0.137545
v 0.195597 -0.532538 0.013649
v 0.108465 -0.025243 -0.085318
v 0.018185 -0.025243 -0.146070
v -0.078801 -0.025243 -0.126818
v -0.145756 -0.025243 -0.033204
v -0.150596 -0.025243 0.076210
v -0.082376 -0.025243 0.153586
v 0.031016 -0.025243 0.169639
v 0.128690 -0.025243 0.114951
v 0.156432 -0.025243 0.016565
v 0.132449 -0.582274 -0.107406
v 0.024152 -0.582274 -0.190621
v -0.098978 -0.581939 -0.157078
v -0.185791 -0.582274 -0.046605
v -0.192510 -0.582274 0.089573
v -0.106181 -0.582274 0.195490
v 0.036812 -0.582274 0.217601
v 0.162232 -0.582274 0.142129
v 0.199135 -0.582274 0.012964
v 0.147339 -0.652174 -0.120967
v 0.030004 -0.650301 -0.211239
v -0.109202 -0.644868 -0.178014
v -0.204122 -0.651126 -0.059696
v -0.211596 -0.652174 0.092901
v -0.114103 -0.652174 0.214510
v 0.038912 -0.652174 0.228130
v 0.174110 -0.652174 0.155480
v 0.217847 -0.652174 0.008547
v 0.167301 -0.729959 -0.139723
v 0.038290 -0.722150 -0.232779
v -0.120263 -0.708830 -0.203245
v -0.223562 -0.722866 -0.075538
v -0.237870 -0.729959 0.092677
v -0.121622 -0.729959 0.228852
v 0.041660 -0.729959 0.239107
v 0.186985 -0.729959 0.169141
v 0.238049 -0.729959 0.003482
v 0.184032 -0.809137 -0.155130
v 0.042159 -0.795977 -0.246363
v -0.126525 -0.776681 -0.216701
v -0.237333 -0.796191 -0.085287
v -0.254109 -0.809137 0.091846
v -0.127448 -0.809137 0.234289
v 0.044251 -0.809137 0.247072
v 0.196947 -0.809137 0.177783
v 0.250883 -0.809137 0.002775
v 0.182977 -0.861934 -0.154288
v 0.041247 -0.846962 -0.239720
v -0.122731 -0.826904 -0.210806
v -0.230948 -0.847098 -0.083254
v -0.247167 -0.861934 0.087146
v -0.123956 -0.861934 0.223307
v 0.043796 -0.861934 0.239268
v 0.192362 -0.861934 0.172007
v 0.244580 -0.861934 0.003500
v 0.158924 -0.902524 -0.133296
v 0.036143 -0.887212 -0.204693
v -0.103875 -0.870266 -0.180004
v -0.196683 -0.887054 -0.071089
v -0.209657 -0.902613 0.073668
v -0.105260 -0.902613 0.188076
v 0.039330 -0.902613 0.208187
v 0.166188 -0.902613 0.147974
v 0.210900 -0.902613 0.004807
v 0.160502 0.716337 -0.134677
v -0.012669 0.775439 -0.179023
v -0.104760 0.716337 -0.181450
v -0.177803 0.795648 -0.088012
v -0.196885 0.716337 0.071660
v -0.094674 0.780256 0.151534
v 0.036383 0.716337 0.206338
v 0.160502 0.748326 0.134677
v 0.181760 0.779071 0.009840
v 0.000000 1.089704 0.000000
v 0.296062 0.472166 0.080991
v 0.205051 0.558748 -0.164561
v 0.131171 0.472166 -0.277500
v -0.042283 0.588353 -0.287547
v -0.250507 0.472166 -0.177366
v -0.261465 0.565804 0.012351
v -0.218171 0.472166 0.215902
v -0.028350 0.519028 0.305628
v 0.139734 0.564068 0.227119
v 0.000000 1.019134 0.000000
v -0.204848 -0.194737 0.468696
v 0.224217 -0.034904 0.376378
v 0.429210 -0.194737 0.280801
v 0.437428 0.010799 0.010786
v 0.354273 -0.194737 -0.376252
v 0.042183 -0.021878 -0.439745
v -0.305810 -0.194737 -0.416549
v -0.499991 -0.108229 -0.123102
v -0.409906 -0.025082 0.174472
v 0.000000 0.814978 0.000000
v 0.403012 -0.610659 0.484509
v 0.538362 -0.413734 -0.039015
v 0.546344 -0.610659 -0.317569
v 0.264206 -0.346400 -0.539169
v -0.218660 -0.610659 -0.598002
v -0.460986 -0.397685 -0.289375
v -0.627675 -0.610659 0.106682
v -0.411770 -0.504075 0.482634
v -0.034292 -0.401633 0.547807
v 0.000000 0.633381 0.000000
vt 0.267498 0.419762
vt 0.332574 0.419762
vt 0.232539 0.620087
vt 0.415583 0.419762
vt 0.023482 0.419762
vt 0.071287 0.419762
vt 0.122987 0.419762
vt 0.173715 0.419762
vt 0.218222 0.419762
vt 0.991735 0.420323
vt 0.767429 0.188957
vt 0.885206 0.398634
vt 0.764971 0.398634
vt 0.017144 0.188957
vt 0.015952 0.398634
vt 0.137559 0.188957
vt 0.139523 0.398634
vt 0.242549 0.188957
vt 0.248067 0.398634
vt 0.340947 0.188957
vt 0.343440 0.398634
vt 0.446204 0.188957
vt 0.448229 0.398634
vt 0.553012 0.188957
vt 0.550467 0.398634
vt 0.651930 0.188957
vt 0.646516 0.398634
vt 0.767407 0.168400
vt 0.017249 0.168538
vt 0.136278 0.168400
vt 0.242832 0.168400
vt 0.342374 0.168400
vt 0.445848 0.168400
vt 0.551714 0.168400
vt 0.652641 0.168400
vt 0.768409 0.139509
vt 0.015524 0.142528
vt 0.130287 0.139942
vt 0.239406 0.139509
vt 0.343658 0.139509
vt 0.446004 0.139509
vt 0.550177 0.139509
vt 0.656584 0.139509
vt 0.769777 0.107358
vt 0.013180 0.116091
vt 0.123895 0.110290
vt 0.232798 0.107358
vt 0.343666 0.107358
vt 0.446505 0.107358
vt 0.549122 0.107358
vt 0.660348 0.107358
vt 0.770533 0.074632
vt 0.012335 0.088047
vt 0.120944 0.079983
vt 0.228937 0.074632
vt 0.342130 0.074632
vt 0.447203 0.074632
vt 0.549241 0.074632
vt 0.660885 0.074632
vt 0.770554 0.052810
vt 0.012113 0.067289
vt 0.120773 0.058942
vt 0.227713 0.052810
vt 0.340832 0.052810
vt 0.447827 0.052810
vt 0.549990 0.052810
vt 0.660390 0.052810
vt 0.770075 0.015710
vt 0.011342 0.015710
vt 0.120544 0.015710
vt 0.227567 0.015710
vt 0.340428 0.015710
vt 0.448864 0.015710
vt 0.550444 0.015710
vt 0.659122 0.015710
vt 0.042266 0.501628
vt 0.040710 0.684045
vt 0.495119 0.461452
vt 0.471703 0.681220
vt 0.364751 0.419762
vt 0.725871 0.615837
vt 0.764793 0.420323
vt 0.977489 0.597166
vt 0.247990 0.680803
vt 0.038975 0.887490
vt 0.038545 0.937842
vt 0.038064 0.994191
vt 0.041743 0.562942
vt 0.041270 0.618466
vt 0.040327 0.728985
vt 0.263434 0.750586
vt 0.040034 0.763337
vt 0.464696 0.419762
vt 0.309383 0.680918
vt 0.361586 0.681015
vt 0.416290 0.681117
vt 0.518807 0.681308
vt 0.578541 0.681419
vt 0.619081 0.681495
vt 0.651966 0.681556
vt 0.726594 0.681695
vt 0.971732 0.874149
vt 0.928109 0.420323
vt 0.875712 0.420323
vt 0.820712 0.420323
vt 0.715892 0.420323
vt 0.655592 0.420323
vt 0.610118 0.420323
vt 0.574917 0.420323
vt 0.496129 0.420323
vt 0.039446 0.832205
vt 0.978452 0.550832
vt 0.979329 0.508619
vt 0.980311 0.461378
vt 0.972800 0.822749
vt 0.973767 0.776229
vt 0.974909 0.721293
vt 0.975691 0.683648
vt 0.791625 0.660651
vt 0.976289 0.654873
vt 0.991875 0.188957
vt 0.990683 0.398634
vt 0.885489 0.188957
vt 0.991980 0.168538
vt 0.885251 0.168400
vt 0.990255 0.142528
vt 0.883045 0.140283
vt 0.987911 0.116091
vt 0.879757 0.110586
vt 0.987065 0.088047
vt 0.878815 0.080072
vt 0.986843 0.067289
vt 0.878648 0.058998
vt 0.877806 0.015710
vt 0.986072 0.015710
vn 0.620154 0.450211 0.642432
vn 0.620154 0.450211 0.642432
vn 0.620154 0.450211 0.642432
vn 0.875570 0.481792 0.035413
vn 0.875570 0.481792 0.035413
vn 0.875570 0.481792 0.035413
vn 0.759905 0.456387 -0.462877
vn 0.759905 0.456387 -0.462877
vn 0.759905 0.456387 -0.462877
vn 0.374346 0.459281 -0.805560
vn 0.374346 0.459281 -0.805560
vn 0.374346 0.459281 -0.805560
vn -0.221697 0.473576 -0.852395
vn -0.221697 0.473576 -0.852395
vn -0.221697 0.473576 -0.852395
vn -0.758346 0.468791 -0.452931
vn -0.758346 0.468791 -0.452931
vn -0.758346 0.468791 -0.452931
vn -0.875493 0.464502 0.133229
vn -0.875493 0.464502 0.133229
vn -0.875493 0.464502 0.133229
vn -0.568952 0.466536 0.677228
vn -0.568952 0.466536 0.677228
vn -0.568952 0.466536 0.677228
vn -0.062455 0.461600 0.884887
vn -0.062455 0.461600 0.884887
vn -0.062455 0.461600 0.884887
vn 0.579476 0.063825 -0.812486
vn 0.579550 0.063718 -0.812442
vn 0.576991 0.067434 -0.813962
vn 0.576991 0.067434 -0.813962
vn -0.238362 0.068026 -0.968791
vn -0.238329 0.068034 -0.968799
vn -0.235309 0.068747 -0.969486
vn -0.235309 0.068747 -0.969486
vn -0.798587 0.066809 -0.598160
vn -0.798595 0.066800 -0.598151
vn -0.799906 0.065257 -0.596567
vn -0.799906 0.065257 -0.596567
vn -0.996142 0.073333 -0.048201
vn -0.996142 0.073335 -0.048202
vn -0.996185 0.072892 -0.047979
vn -0.996185 0.072892 -0.047979
vn -0.758145 0.077239 0.647495
vn -0.758184 0.077366 0.647434
vn -0.757126 0.073939 0.649071
vn -0.757126 0.073939 0.649071
vn -0.157137 0.082532 0.984122
vn -0.157139 0.082561 0.984119
vn -0.156743 0.077326 0.984608
vn -0.156743 0.077326 0.984608
vn 0.505357 0.076212 0.859538
vn 0.505323 0.076125 0.859566
vn 0.504252 0.073416 0.860430
vn 0.504252 0.073416 0.860430
vn 0.958816 0.071411 0.274905
vn 0.958816 0.071415 0.274902
vn 0.958840 0.071591 0.274775
vn 0.958840 0.071591 0.274774
vn 0.891332 0.063379 -0.448899
vn 0.891356 0.063436 -0.448843
vn 0.892552 0.066284 -0.446046
vn 0.892552 0.066284 -0.446046
vn 0.579550 0.063718 -0.812442
vn 0.579476 0.063825 -0.812486
vn 0.597200 0.182085 -0.781151
vn 0.596964 0.185191 -0.780602
vn -0.238329 0.068034 -0.968799
vn -0.238362 0.068026 -0.968791
vn -0.244168 0.212875 -0.946079
vn -0.244747 0.209217 -0.946746
vn -0.798595 0.066800 -0.598151
vn -0.798587 0.066809 -0.598160
vn -0.767785 0.226003 -0.599524
vn -0.768686 0.221174 -0.600170
vn -0.996142 0.073335 -0.048202
vn -0.996142 0.073333 -0.048201
vn -0.979233 0.196988 -0.047952
vn -0.979791 0.194176 -0.048013
vn -0.758184 0.077366 0.647434
vn -0.758145 0.077239 0.647495
vn -0.760647 0.193093 0.619783
vn -0.760471 0.194810 0.619462
vn -0.157139 0.082561 0.984119
vn -0.157137 0.082532 0.984122
vn -0.134244 0.178295 0.974777
vn -0.134264 0.178258 0.974781
vn 0.505323 0.076125 0.859566
vn 0.505357 0.076212 0.859538
vn 0.496931 0.157628 0.853354
vn 0.497190 0.156827 0.853351
vn 0.958816 0.071415 0.274902
vn 0.958816 0.071411 0.274905
vn 0.946627 0.168060 0.275051
vn 0.946801 0.167038 0.275075
vn 0.891356 0.063436 -0.448843
vn 0.891332 0.063379 -0.448899
vn 0.864090 0.177460 -0.471016
vn 0.864267 0.176447 -0.471073
vn 0.596964 0.185191 -0.780602
vn 0.597200 0.182085 -0.781151
vn 0.580455 0.296743 -0.758298
vn 0.580360 0.297020 -0.758262
vn -0.244747 0.209217 -0.946746
vn -0.244168 0.212875 -0.946079
vn -0.196948 0.314950 -0.928449
vn -0.199585 0.313848 -0.928259
vn -0.768686 0.221174 -0.600170
vn -0.767785 0.226003 -0.599524
vn -0.746723 0.329025 -0.578055
vn -0.746785 0.328333 -0.578369
vn -0.979791 0.194176 -0.048013
vn -0.979233 0.196988 -0.047952
vn -0.957394 0.283898 -0.052894
vn -0.957835 0.282489 -0.052454
vn -0.760471 0.194810 0.619462
vn -0.760647 0.193093 0.619783
vn -0.752439 0.228872 0.617620
vn -0.752495 0.229247 0.617411
vn -0.134264 0.178258 0.974781
vn -0.134244 0.178295 0.974777
vn -0.092953 0.183199 0.978672
vn -0.093453 0.183755 0.978520
vn 0.497190 0.156827 0.853351
vn 0.496931 0.157628 0.853354
vn 0.463238 0.188340 0.865990
vn 0.463000 0.188275 0.866131
vn 0.946801 0.167038 0.275075
vn 0.946627 0.168060 0.275051
vn 0.935202 0.217571 0.279394
vn 0.935199 0.217553 0.279417
vn 0.864267 0.176447 -0.471073
vn 0.864090 0.177460 -0.471016
vn 0.848608 0.276704 -0.450888
vn 0.848618 0.276757 -0.450835
vn 0.580360 0.297020 -0.758262
vn 0.580455 0.296743 -0.758298
vn 0.567326 0.265391 -0.779556
vn 0.567732 0.267649 -0.778489
vn -0.199585 0.313848 -0.928259
vn -0.196948 0.314950 -0.928449
vn -0.164855 0.244193 -0.955611
vn -0.166149 0.253449 -0.952973
vn -0.746785 0.328333 -0.578369
vn -0.746723 0.329025 -0.578055
vn -0.758836 0.270956 -0.592242
vn -0.759031 0.269719 -0.592557
vn -0.957835 0.282489 -0.052454
vn -0.957394 0.283898 -0.052894
vn -0.967746 0.242593 -0.067944
vn -0.967323 0.244370 -0.067601
vn -0.752495 0.229247 0.617411
vn -0.752439 0.228872 0.617620
vn -0.750198 0.163767 0.640612
vn -0.750348 0.167977 0.639345
vn -0.093453 0.183755 0.978520
vn -0.092953 0.183199 0.978672
vn -0.071129 0.120942 0.990108
vn -0.071195 0.121799 0.989998
vn 0.463000 0.188275 0.866131
vn 0.463238 0.188340 0.865990
vn 0.432400 0.154473 0.888352
vn 0.432020 0.153645 0.888680
vn 0.935199 0.217553 0.279417
vn 0.935202 0.217571 0.279394
vn 0.940743 0.179234 0.287886
vn 0.940758 0.179138 0.287897
vn 0.848618 0.276757 -0.450835
vn 0.848608 0.276704 -0.450888
vn 0.872576 0.244635 -0.422807
vn 0.872934 0.243899 -0.422491
vn 0.567732 0.267649 -0.778489
vn 0.567326 0.265391 -0.779556
vn 0.549729 0.097514 -0.829632
vn 0.551661 0.115025 -0.826099
vn -0.166149 0.253449 -0.952973
vn -0.164855 0.244193 -0.955611
vn -0.172580 0.043479 -0.984035
vn -0.170125 0.068205 -0.983059
vn -0.759031 0.269719 -0.592557
vn -0.758836 0.270956 -0.592242
vn -0.770106 0.079835 -0.632900
vn -0.769409 0.060085 -0.635924
vn -0.967323 0.244370 -0.067601
vn -0.967746 0.242593 -0.067944
vn -0.993509 0.071728 -0.088289
vn -0.993863 0.065969 -0.088792
vn -0.750348 0.167977 0.639345
vn -0.750198 0.163767 0.640612
vn -0.749841 -0.001351 0.661617
vn -0.750147 0.009497 0.661203
vn -0.071195 0.121799 0.989998
vn -0.071129 0.120942 0.990108
vn -0.075004 -0.022104 0.996938
vn -0.075007 -0.022168 0.996937
vn 0.432020 0.153645 0.888680
vn 0.432400 0.154473 0.888352
vn 0.419072 0.023728 0.907643
vn 0.418976 0.020564 0.907764
vn 0.940758 0.179138 0.287897
vn 0.940743 0.179234 0.287886
vn 0.954529 0.046240 0.294510
vn 0.954565 0.045418 0.294523
vn 0.872934 0.243899 -0.422491
vn 0.872576 0.244635 -0.422807
vn 0.912371 0.095872 -0.397979
vn 0.912802 0.092946 -0.397686
vn 0.551661 0.115025 -0.826099
vn 0.549729 0.097514 -0.829632
vn 0.461089 -0.341959 -0.818817
vn 0.473394 -0.300131 -0.828142
vn -0.170125 0.068205 -0.983059
vn -0.172580 0.043479 -0.984035
vn -0.205064 -0.382678 -0.900836
vn -0.202990 -0.341833 -0.917576
vn -0.769409 0.060085 -0.635924
vn -0.770106 0.079835 -0.632900
vn -0.687010 -0.350326 -0.636623
vn -0.674354 -0.383140 -0.631229
vn -0.993863 0.065969 -0.088792
vn -0.993509 0.071728 -0.088289
vn -0.921792 -0.368305 -0.121044
vn -0.918655 -0.375919 -0.121485
vn -0.750147 0.009497 0.661203
vn -0.749841 -0.001351 0.661617
vn -0.679597 -0.403971 0.612336
vn -0.680918 -0.400004 0.613472
vn -0.075007 -0.022168 0.996937
vn -0.075004 -0.022104 0.996938
vn -0.088101 -0.384269 0.919008
vn -0.088286 -0.397064 0.913535
vn 0.418976 0.020564 0.907764
vn 0.419072 0.023728 0.907643
vn 0.388745 -0.353377 0.850883
vn 0.389695 -0.346707 0.853189
vn 0.954565 0.045418 0.294523
vn 0.954529 0.046240 0.294510
vn 0.901595 -0.330382 0.279240
vn 0.898390 -0.339789 0.278278
vn 0.912802 0.092946 -0.397686
vn 0.912371 0.095872 -0.397979
vn 0.881825 -0.314743 -0.351172
vn 0.881245 -0.316691 -0.350875
vn 0.473394 -0.300131 -0.828142
vn 0.461089 -0.341959 -0.818817
vn 0.348605 -0.615526 -0.706826
vn 0.348605 -0.615526 -0.706826
vn -0.202990 -0.341833 -0.917576
vn -0.205064 -0.382678 -0.900836
vn -0.208690 -0.625941 -0.751429
vn -0.208690 -0.625941 -0.751429
vn -0.674354 -0.383140 -0.631229
vn -0.687010 -0.350326 -0.636623
vn -0.539381 -0.631282 -0.557271
vn -0.539381 -0.631282 -0.557271
vn -0.918655 -0.375919 -0.121485
vn -0.921792 -0.368305 -0.121044
vn -0.741472 -0.657847 -0.132127
vn -0.741472 -0.657847 -0.132127
vn -0.680918 -0.400004 0.613472
vn -0.679597 -0.403971 0.612336
vn -0.546393 -0.674623 0.496325
vn -0.546393 -0.674623 0.496325
vn -0.088286 -0.397064 0.913535
vn -0.088101 -0.384269 0.919008
vn -0.088292 -0.638550 0.764499
vn -0.088292 -0.638549 0.764499
vn 0.389695 -0.346707 0.853189
vn 0.388745 -0.353377 0.850883
vn 0.332320 -0.611560 0.718023
vn 0.332320 -0.611560 0.718023
vn 0.898390 -0.339789 0.278278
vn 0.901595 -0.330382 0.279240
vn 0.750945 -0.617689 0.233543
vn 0.750945 -0.617689 0.233543
vn 0.881245 -0.316691 -0.350875
vn 0.881825 -0.314743 -0.351172
vn 0.742677 -0.605852 -0.285262
vn 0.742677 -0.605852 -0.285262
vn 0.362612 0.450211 -0.815980
vn 0.362612 0.450211 -0.815980
vn 0.362612 0.450211 -0.815980
vn -0.288019 0.482744 -0.827045
vn -0.288019 0.482744 -0.827045
vn -0.288019 0.482744 -0.827045
vn -0.435295 0.489377 -0.755664
vn -0.435295 0.489377 -0.755664
vn -0.435295 0.489377 -0.755664
vn -0.865280 0.482427 0.136218
vn -0.865280 0.482427 0.136218
vn -0.865280 0.482427 0.136218
vn -0.706809 0.473575 0.525497
vn -0.706809 0.473575 0.525497
vn -0.706809 0.473575 0.525497
vn -0.136174 0.468989 0.872643
vn -0.136174 0.468989 0.872643
vn -0.136174 0.468989 0.872643
vn 0.342684 0.479765 0.807709
vn 0.342684 0.479765 0.807708
vn 0.342684 0.479765 0.807709
vn 0.829134 0.493471 0.262721
vn 0.829134 0.493471 0.262721
vn 0.829134 0.493471 0.262721
vn 0.820774 0.469971 -0.324743
vn 0.820774 0.469971 -0.324743
vn 0.820774 0.469971 -0.324743
vn 0.877279 0.450211 -0.166407
vn 0.877279 0.450211 -0.166407
vn 0.877279 0.450211 -0.166407
vn 0.515982 0.482744 -0.707617
vn 0.515982 0.482744 -0.707617
vn 0.515982 0.482744 -0.707617
vn 0.373454 0.489377 -0.788062
vn 0.373454 0.489377 -0.788062
vn 0.373454 0.489377 -0.788062
vn -0.604582 0.482426 -0.633834
vn -0.604582 0.482426 -0.633834
vn -0.604582 0.482426 -0.633834
vn -0.834408 0.473576 -0.281939
vn -0.834408 0.473576 -0.281939
vn -0.834408 0.473575 -0.281939
vn -0.794957 0.468988 0.384829
vn -0.794957 0.468988 0.384829
vn -0.794957 0.468988 0.384829
vn -0.468965 0.479765 0.741551
vn -0.468965 0.479765 0.741551
vn -0.468965 0.479765 0.741551
vn 0.256020 0.493471 0.831228
vn 0.256020 0.493471 0.831228
vn 0.256020 0.493471 0.831228
vn 0.734239 0.469971 0.489919
vn 0.734239 0.469971 0.489919
vn 0.734239 0.469971 0.489919
vn 0.041561 0.413724 0.909453
vn 0.041561 0.413724 0.909453
vn 0.041561 0.413724 0.909453
vn 0.639641 0.446004 0.626051
vn 0.639641 0.446004 0.626051
vn 0.639641 0.446004 0.626051
vn 0.815374 0.448430 0.366163
vn 0.815374 0.448430 0.366163
vn 0.815374 0.448430 0.366163
vn 0.806145 0.433090 -0.403192
vn 0.806145 0.433090 -0.403192
vn 0.806145 0.433090 -0.403192
vn 0.406958 0.440892 -0.800000
vn 0.406958 0.440892 -0.800000
vn 0.406958 0.440892 -0.800000
vn -0.273951 0.436510 -0.856977
vn -0.273951 0.436510 -0.856977
vn -0.273951 0.436510 -0.856977
vn -0.680288 0.445988 -0.581639
vn -0.680288 0.445988 -0.581639
vn -0.680288 0.445988 -0.581639
vn -0.878489 0.457351 0.138155
vn -0.878489 0.457351 0.138155
vn -0.878489 0.457351 0.138155
vn -0.602819 0.433292 0.669975
vn -0.602819 0.433292 0.669975
vn -0.602819 0.433292 0.669975
vn 0.831553 0.413724 0.370610
vn 0.831553 0.413724 0.370610
vn 0.831553 0.413724 0.370610
vn 0.846386 0.446004 -0.291051
vn 0.846386 0.446004 -0.291051
vn 0.846386 0.446004 -0.291051
vn 0.773053 0.452884 -0.444168
vn 0.773053 0.452884 -0.444168
vn 0.773053 0.452884 -0.444168
vn -0.137973 0.448690 -0.882973
vn -0.137973 0.448690 -0.882973
vn -0.137973 0.448690 -0.882973
vn -0.532621 0.440892 -0.722447
vn -0.532621 0.440892 -0.722447
vn -0.532621 0.440892 -0.722447
vn -0.888841 0.436510 -0.139360
vn -0.888841 0.436510 -0.139360
vn -0.888841 0.436510 -0.139360
vn -0.824912 0.445988 0.347296
vn -0.824912 0.445988 0.347296
vn -0.824912 0.445988 0.347296
vn -0.270386 0.457351 0.847184
vn -0.270386 0.457351 0.847184
vn -0.270386 0.457351 0.847184
vn 0.328582 0.433292 0.839221
vn 0.328582 0.433292 0.839221
vn 0.328582 0.433292 0.839221
s off
g LowPolyTree2:pCone6 LowPolyTree2:polySurface1
usemtl LowPolyTree2:lambert2SG
f 1/1/1 2/2/2 10/3/3
f 2/2/4 3/80/5 10/3/6
f 3/80/7 4/4/8 10/3/9
f 4/4/10 5/93/11 10/3/12
f 5/5/13 6/6/14 10/3/15
f 6/6/16 7/7/17 10/3/18
f 7/7/19 8/8/20 10/3/21
f 8/8/22 9/9/23 10/3/24
f 9/9/25 1/1/26 10/3/27
g LowPolyTree2:pCone6 LowPolyTree2:textureEditorIsolateSelectSet LowPolyTree2:polySurface1
f 11/11/28 12/123/29 21/12/30 20/13/31
f 12/123/32 13/121/33 22/122/34 21/12/35
f 13/14/36 14/16/37 23/17/38 22/15/39
f 14/16/40 15/18/41 24/19/42 23/17/43
f 15/18/44 16/20/45 25/21/46 24/19/47
f 16/20/48 17/22/49 26/23/50 25/21/51
f 17/22/52 18/24/53 27/25/54 26/23/55
f 18/24/56 19/26/57 28/27/58 27/25/59
f 19/26/60 11/11/61 20/13/62 28/27/63
f 12/123/64 11/11/65 29/28/66 30/125/67
f 13/121/68 12/123/69 30/125/70 31/124/71
f 14/16/72 13/14/73 31/29/74 32/30/75
f 15/18/76 14/16/77 32/30/78 33/31/79
f 16/20/80 15/18/81 33/31/82 34/32/83
f 17/22/84 16/20/85 34/32/86 35/33/87
f 18/24/88 17/22/89 35/33/90 36/34/91
f 19/26/92 18/24/93 36/34/94 37/35/95
f 11/11/96 19/26/97 37/35/98 29/28/99
f 30/125/100 29/28/101 38/36/102 39/127/103
f 31/124/104 30/125/105 39/127/106 40/126/107
f 32/30/108 31/29/109 40/37/110 41/38/111
f 33/31/112 32/30/113 41/38/114 42/39/115
f 34/32/116 33/31/117 42/39/118 43/40/119
f 35/33/120 34/32/121 43/40/122 44/41/123
f 36/34/124 35/33/125 44/41/126 45/42/127
f 37/35/128 36/34/129 45/42/130 46/43/131
f 29/28/132 37/35/133 46/43/134 38/36/135
f 39/127/136 38/36/137 47/44/138 48/129/139
f 40/126/140 39/127/141 48/129/142 49/128/143
f 41/38/144 40/37/145 49/45/146 50/46/147
f 42/39/148 41/38/149 50/46/150 51/47/151
f 43/40/152 42/39/153 51/47/154 52/48/155
f 44/41/156 43/40/157 52/48/158 53/49/159
f 45/42/160 44/41/161 53/49/162 54/50/163
f 46/43/164 45/42/165 54/50/166 55/51/167
f 38/36/168 46/43/169 55/51/170 47/44/171
f 48/129/172 47/44/173 56/52/174 57/131/175
f 49/128/176 48/129/177 57/131/178 58/130/179
f 50/46/180 49/45/181 58/53/182 59/54/183
f 51/47/184 50/46/185 59/54/186 60/55/187
f 52/48/188 51/47/189 60/55/190 61/56/191
f 53/49/192 52/48/193 61/56/194 62/57/195
f 54/50/196 53/49/197 62/57/198 63/58/199
f 55/51/200 54/50/201 63/58/202 64/59/203
f 47/44/204 55/51/205 64/59/206 56/52/207
f 57/131/208 56/52/209 65/60/210 66/133/211
f 58/130/212 57/131/213 66/133/214 67/132/215
f 59/54/216 58/53/217 67/61/218 68/62/219
f 60/55/220 59/54/221 68/62/222 69/63/223
f 61/56/224 60/55/225 69/63/226 70/64/227
f 62/57/228 61/56/229 70/64/230 71/65/231
f 63/58/232 62/57/233 71/65/234 72/66/235
f 64/59/236 63/58/237 72/66/238 73/67/239
f 56/52/240 64/59/241 73/67/242 65/60/243
f 66/133/244 65/60/245 74/68/246 75/134/247
f 67/132/248 66/133/249 75/134/250 76/135/251
f 68/62/252 67/61/253 76/69/254 77/70/255
f 69/63/256 68/62/257 77/70/258 78/71/259
f 70/64/260 69/63/261 78/71/262 79/72/263
f 71/65/264 70/64/265 79/72/266 80/73/267
f 72/66/268 71/65/269 80/73/270 81/74/271
f 73/67/272 72/66/273 81/74/274 82/75/275
f 65/60/276 73/67/277 82/75/278 74/68/279
g LowPolyTree2:pCone6 LowPolyTree2:polySurface1
f 83/83/280 84/120/281 92/119/282
f 84/120/283 85/118/284 92/119/285
f 85/118/286 86/117/287 92/119/288
f 86/117/289 87/116/290 92/119/291
f 87/116/292 88/115/293 92/119/294
f 88/115/295 89/102/296 92/119/297
f 89/114/298 90/113/299 92/119/300
f 90/113/301 91/112/302 92/119/303
f 91/112/304 83/83/305 92/119/306
f 93/110/307 94/109/308 102/81/309
f 94/109/310 95/108/311 102/81/312
f 95/108/313 96/107/314 102/81/315
f 96/107/316 97/106/317 102/81/318
f 97/106/319 98/82/320 102/81/321
f 98/82/322 99/105/323 102/81/324
f 99/105/325 100/104/326 102/81/327
f 100/104/328 101/103/329 102/81/330
f 101/103/331 93/10/332 102/81/333
f 103/101/334 104/100/335 112/78/336
f 104/100/337 105/99/338 112/78/339
f 105/99/340 106/98/341 112/78/342
f 106/98/343 107/97/344 112/78/345
f 107/97/346 108/79/347 112/78/348
f 108/79/349 109/96/350 112/78/351
f 109/96/352 110/95/353 112/78/354
f 110/95/355 111/94/356 112/78/357
f 111/94/358 103/84/359 112/78/360
f 113/111/361 114/92/362 122/91/363
f 114/92/364 115/90/365 122/91/366
f 115/90/367 116/77/368 122/91/369
f 116/77/370 117/89/371 122/91/372
f 117/89/373 118/88/374 122/91/375
f 118/88/376 119/76/377 122/91/378
f 119/87/379 120/86/380 122/91/381
f 120/86/382 121/85/383 122/91/384
f 121/85/385 113/111/386 122/91/387
